<svg version="1.2" xmlns="http://www.w3.org/2000/svg" viewBox="0 0 500 500" width="500" height="500">
	<title>logo</title>
	<style>
		.s0 { fill: #009da2 } 
		.s1 { fill: #ffffff } 
	</style>
	<g id="Layer 1">
		<path id="Path 0" class="s0" d="m38.5 51.4c-2.8 0.6-7.7 2.5-11 4.1-3.4 1.7-8.7 5.6-12.1 9-3.6 3.5-7.4 8.6-9.3 12.3-1.7 3.4-3.8 9-4.6 12.5-1.3 5.3-1.5 27.6-1.5 160.9 0 109.2 0.3 156.3 1.1 160 0.6 2.9 2.5 8.2 4.2 11.8q3 6.5 9.6 13.1 6.6 6.6 13.1 9.6c3.6 1.7 8.9 3.6 11.8 4.2 3.7 0.8 64.5 1.1 210.4 1.1 183.6 0 205.9-0.2 211.3-1.6 3.3-0.8 8.5-2.7 11.5-4.2 3.2-1.5 8.2-5.3 12-9.2 3.6-3.6 7.7-9 9.2-12 1.5-3 3.4-8.2 4.3-11.5 1.3-5.2 1.5-22.3 1.5-136 0-114-0.2-130.8-1.6-136.5-0.8-3.6-2.7-9-4.2-12-1.5-3.1-5.6-8.4-9.2-12-3.7-3.8-8.8-7.7-12-9.3-3-1.4-8.2-3.3-11.5-4.2-5.2-1.3-19.6-1.5-108.5-1.5h-102.5l-50-50c-135.7 0.1-158.4 0.5-162 1.4z"/>
		<path id="Path 1" class="s1" d="m185.5 180.8c-3.3 1-8.5 3-11.5 4.5-3 1.5-8.2 4.9-11.5 7.5-3.3 2.7-8.1 8-10.8 11.8-2.6 3.8-5.9 10.3-7.3 14.4-1.7 4.9-2.8 10.5-3.1 16-0.4 5.7 0 11.5 1.2 17.5 0.9 4.9 3.2 13.3 5.1 18.5 1.9 5.2 5.7 13.5 8.4 18.5 2.8 4.9 8.7 13.9 13.2 20 4.5 6 12 15 16.7 19.9 4.7 4.8 12.2 11.9 16.6 15.6 4.4 3.7 12.3 9.7 17.5 13.3 5.2 3.6 13.8 8.6 19 11.1 5.2 2.6 10.2 4.6 11 4.6 0.8 0 6-2.3 11.5-5.1 5.5-2.8 14-7.9 18.9-11.2 4.9-3.4 13.9-10.5 20-15.7 6-5.2 14.6-13.7 19-18.8 4.5-5.1 10.9-13.2 14.4-18 3.4-4.8 9.1-14.6 12.7-21.7q6.5-13 9.1-23c1.4-5.5 2.7-13.6 3-18 0.4-5.4 0.1-10.4-1-15.5-0.9-4.1-3.2-10.9-5.2-15-2.7-5.4-5.8-9.6-11.3-15.1-5.3-5.4-9.7-8.7-14.8-11.3-4-2-10.3-4.3-14-5.2-4.8-1.1-9.6-1.5-16.3-1.1-5.4 0.3-12.3 1.4-16 2.5-3.6 1.1-9.9 4.3-14 7-4.1 2.7-9.4 7.1-11.7 9.8l-4.2 4.9c-12.7-12.2-18-16.2-22.1-18.2-3.6-1.8-9.4-3.9-13-4.7-3.6-0.9-10.3-1.5-15-1.5-4.8 0-11.1 0.8-14.5 1.7z"/>
		<path id="Path 2" class="s0" d="m231 242.5v15.5h-31l0.5 37.5 30.5 0.5 0.5 30.5h37l0.5-30.5 30.5-0.5 0.5-37.5h-31v-31h-38z"/>
	</g>
</svg>